<svg xmlns="http://www.w3.org/2000/svg" viewBox="0 0 800 600" role="img" aria-labelledby="title desc">
  <title id="title">Mapa ilustrado de la Sierra Nevada de Santa Marta</title>
  <desc id="desc">Ilustración topográfica referencial que destaca el territorio Kankuamo en la vertiente suroriental.</desc>
  <defs>
    <linearGradient id="bg" x1="0" y1="0" x2="1" y2="1"><stop stop-color="#eee4d3"/><stop offset="1" stop-color="#d8c7aa"/></linearGradient>
    <linearGradient id="mount" x1=".2" y1="0" x2=".7" y2="1"><stop stop-color="#87947d"/><stop offset="1" stop-color="#304c3b"/></linearGradient>
    <filter id="shadow"><feDropShadow dx="0" dy="12" stdDeviation="12" flood-color="#473b32" flood-opacity=".25"/></filter>
    <pattern id="grain" width="35" height="35" patternUnits="userSpaceOnUse"><circle cx="4" cy="8" r="1" fill="#554a41" opacity=".12"/><circle cx="25" cy="22" r=".7" fill="#554a41" opacity=".1"/></pattern>
  </defs>
  <rect width="800" height="600" fill="url(#bg)"/>
  <rect width="800" height="600" fill="url(#grain)"/>
  <path d="M84 458C136 404 180 376 217 302c30-59 62-107 121-129 63-23 105-105 170-81 49 18 73 82 118 110 57 35 60 101 104 150l-58 151-525 20z" fill="url(#mount)" filter="url(#shadow)"/>
  <path d="M126 464c93-66 117-177 214-227 82-42 98-122 163-129 62-7 87 107 157 127" fill="none" stroke="#f4efe5" stroke-width="3" opacity=".45"/>
  <path d="M173 479c83-48 117-143 196-183 70-35 101-99 151-103 47-4 78 73 132 91" fill="none" stroke="#f4efe5" stroke-width="2" opacity=".4"/>
  <path d="M219 493c67-38 108-98 167-125 58-27 87-75 127-77 39-2 65 42 107 56" fill="none" stroke="#f4efe5" stroke-width="2" opacity=".35"/>
  <path d="M398 177l38-53 28 37 32-50 42 73z" fill="#f8f5ed" opacity=".95"/>
  <path d="M464 502C448 454 451 405 482 370c29-33 79-48 119-25 30 17 50 54 65 91l-29 73z" fill="#a95542" opacity=".84"/>
  <path d="M536 428c0-44 66-44 66 0 0 33-33 62-33 62s-33-29-33-62z" fill="#f5ede0"/>
  <circle cx="569" cy="427" r="11" fill="#a95542"/>
  <path d="M102 106h155" stroke="#5d376e" stroke-width="2"/>
  <text x="102" y="82" fill="#291b35" font-family="Georgia,serif" font-size="29">Sierra Nevada</text>
  <text x="102" y="129" fill="#5e5653" font-family="Arial,sans-serif" font-size="15" letter-spacing="2">SANTA MARTA · COLOMBIA</text>
  <text x="493" y="536" fill="#291b35" font-family="Georgia,serif" font-size="23">Territorio Kankuamo</text>
  <text x="493" y="562" fill="#5e5653" font-family="Arial,sans-serif" font-size="13">UBICACIÓN REFERENCIAL</text>
  <g fill="#291b35" font-family="Arial,sans-serif" font-size="12" letter-spacing="1">
    <circle cx="673" cy="78" r="4"/><text x="686" y="82">MAR CARIBE</text>
    <circle cx="115" cy="535" r="4"/><text x="128" y="539">VALLEDUPAR</text>
  </g>
  <path d="M700 112v52m-14-38 14-14 14 14" fill="none" stroke="#291b35" stroke-width="2"/>
  <text x="694" y="184" fill="#291b35" font-family="Arial,sans-serif" font-size="12">N</text>
</svg>
